<svg width="49" height="49" viewBox="0 0 49 49" fill="none" xmlns="http://www.w3.org/2000/svg">
<path d="M39.8358 2H33.791C28.6418 2 26.6268 4.01481 26.6268 9.16406V17.4475C26.6268 22.5968 28.6418 24.6118 33.791 24.6118H39.8358C44.9851 24.6118 47 22.5968 47 17.4475V10.9552" stroke="#F97E6C" stroke-width="2.5" stroke-linecap="round" stroke-linejoin="round"/>
<path d="M9.16419 46.7761H15.209C20.3582 46.7761 22.3732 44.761 22.3732 39.6117V31.3283C22.3732 26.179 20.3582 24.1639 15.209 24.1639H9.16419C4.01495 24.1639 2 26.179 2 31.3283V38.0447" stroke="#F97E6C" stroke-width="2.5" stroke-linecap="round" stroke-linejoin="round"/>
<path d="M46.776 31.1044C46.776 39.8357 39.8357 46.776 31.1044 46.776L33.3432 42.746" stroke="#F97E6C" stroke-width="2.5" stroke-linecap="round" stroke-linejoin="round"/>
<path d="M2 17.6716C2 8.94029 8.94029 2 17.6716 2L15.4328 6.02968" stroke="#F97E6C" stroke-width="2.5" stroke-linecap="round" stroke-linejoin="round"/>
</svg>
