<svg width="46" height="46" viewBox="0 0 46 46" fill="none" xmlns="http://www.w3.org/2000/svg">
<path d="M17.9601 10.8202C18.3801 11.4502 18.59 11.8701 18.8 12.2901C19.01 12.7101 19.0101 13.13 19.0101 13.55C19.0101 13.97 18.8001 14.6002 18.5901 15.0202C18.3801 15.4402 17.9601 16.0701 17.3301 16.4901L15.65 18.1702C15.44 18.3802 15.2301 18.5899 15.2301 19.0099C15.2301 19.2199 15.2301 19.4301 15.2301 19.4301C15.2301 19.6401 15.4401 19.64 15.4401 19.85C15.8601 20.48 16.4901 21.5301 17.3301 22.5801C18.3801 23.6301 19.2201 24.6801 20.4801 25.9401C21.5301 26.9901 22.7901 28.0401 23.8401 29.0901C24.8901 29.9301 25.94 30.5601 26.57 30.9801C26.78 30.9801 26.7801 30.98 26.9901 31.19C27.2001 31.19 27.41 31.19 27.62 31.19C28.04 31.19 28.2501 30.9802 28.4601 30.7702L30.14 29.0901C30.77 28.4601 31.1901 28.2501 31.6101 27.8301C32.0301 27.6201 32.6601 27.4099 33.0801 27.4099C33.5001 27.4099 33.92 27.4102 34.34 27.6202C34.76 27.8302 35.3901 28.0399 35.8101 28.4599L42.74 33.29C43.37 33.71 43.58 34.13 43.79 34.55C44 35.18 44.2101 35.6001 44.2101 36.2301C44.2101 37.0701 44.0001 37.7 43.5801 38.54C43.1601 39.38 42.7401 40.01 42.1101 40.64C41.0601 41.69 40.01 42.5299 38.75 43.1599C37.49 43.7899 36.02 44 34.55 44C32.45 44 30.14 43.5801 27.62 42.5301C25.31 41.4801 22.7901 40.0101 20.4801 38.3301C18.1701 36.6501 15.86 34.55 13.55 32.45C11.45 30.35 9.35003 28.0402 7.67003 25.5202C5.99003 23.2102 4.52003 20.6901 3.47003 18.3801C2.42003 16.0701 2 13.76 2 11.45C2 9.98 2.21005 8.71995 2.84005 7.45995C3.26005 6.19995 4.10008 4.94005 5.36008 3.89005C6.62008 2.63005 8.09003 2 9.77003 2C10.4 2 11.03 2.21015 11.45 2.42015C12.08 2.63015 12.5 3.0501 12.92 3.6801" stroke="#F97E6C" stroke-width="2.5" stroke-miterlimit="10" stroke-linecap="round" stroke-linejoin="round"/>
<path d="M37.0705 17.1201C37.0705 15.8601 36.0204 13.97 34.5504 12.29C33.2904 10.82 31.4005 9.77014 29.7205 9.77014" stroke="#F97E6C" stroke-width="2.5" stroke-linecap="round" stroke-linejoin="round"/>
<path d="M33.9205 2.84006C32.6605 2.42006 31.1905 2.20996 29.7205 2.20996" stroke="#F97E6C" stroke-width="2.5" stroke-linecap="round" stroke-linejoin="round"/>
<path d="M44.4204 17.1202C44.4204 12.0802 41.9004 7.67002 38.1204 5.15002" stroke="#F97E6C" stroke-width="2.5" stroke-linecap="round" stroke-linejoin="round"/>
</svg>
