<svg width="50" height="52" viewBox="0 0 50 52" fill="none" xmlns="http://www.w3.org/2000/svg">
<path d="M5.63159 40.7371C5.63159 48.0003 8.05264 50.4213 15.3158 50.4213H34.6842C41.9474 50.4213 44.3684 48.0003 44.3684 40.7371V21.3687H5.63159V30.5685" stroke="#F97E6C" stroke-width="2.5" stroke-miterlimit="10" stroke-linecap="round" stroke-linejoin="round"/>
<path d="M48 14.1055V16.5266C48 19.1897 46.7895 21.3687 43.1579 21.3687H6.84211C3.21053 21.3687 2 19.1897 2 16.5266V14.1055C2 11.4424 3.21053 9.26343 6.84211 9.26343H43.1579C46.7895 9.26343 48 11.2003 48 14.1055Z" stroke="#F97E6C" stroke-width="2.5" stroke-miterlimit="10" stroke-linecap="round" stroke-linejoin="round"/>
<path d="M24.274 9.26334H10.9582C10.2319 8.29491 10.2319 7.08427 10.9582 6.11585L14.3477 2.72632C15.3161 1.75789 16.7687 1.75789 17.4951 2.72632L24.274 9.26334Z" stroke="#F97E6C" stroke-width="2.5" stroke-miterlimit="10" stroke-linecap="round" stroke-linejoin="round"/>
<path d="M39.2847 9.2634H25.9689L32.5057 2.72638C33.4742 1.75796 34.9268 1.75796 35.6531 2.72638L39.0425 6.11591C40.0109 6.84223 40.011 8.29498 39.2847 9.2634Z" stroke="#F97E6C" stroke-width="2.5" stroke-miterlimit="10" stroke-linecap="round" stroke-linejoin="round"/>
<path d="M17.7368 21.3687V33.716C17.7368 35.6529 19.9158 36.8632 21.3684 35.6527L23.5474 34.2001C24.2737 33.7159 25.4842 33.7159 26.2105 34.2001L28.3895 35.6527C30.0842 36.6211 32.2631 35.6529 32.2631 33.716V21.3687H17.7368Z" stroke="#F97E6C" stroke-width="2.5" stroke-miterlimit="10" stroke-linecap="round" stroke-linejoin="round"/>
</svg>
