<svg width="43" height="47" viewBox="0 0 43 47" fill="none" xmlns="http://www.w3.org/2000/svg">
<path d="M31.3076 17.653L26.8671 15.6547C26.423 15.4327 26.201 14.9886 26.201 14.5445V7.88372C26.201 5.88548 24.6468 3.44318 22.8706 2.33304C22.2045 1.88899 21.3164 1.88899 20.8723 2.33304C19.0961 3.22115 17.5419 5.88548 17.5419 7.88372V14.5445C17.5419 14.9886 17.3199 15.4327 16.8758 15.6547L4.4423 20.9834C3.11013 21.6495 2 23.2036 2 24.7577V27.6442C2 29.4204 3.33217 30.5306 5.10839 29.6425L15.9877 24.9797C16.8758 24.5357 17.5419 24.9797 17.5419 26.0899V32.3067C17.5419 32.7508 17.3199 33.6388 16.8758 33.8608L11.7692 38.9676C11.3252 39.4116 10.8811 40.5217 11.3251 41.1878L12.2133 44.0743C12.6573 45.4065 13.9895 46.0725 15.3216 45.4064L20.4283 40.9659C21.0943 40.2998 22.4265 40.2998 23.3146 40.9659L28.4213 45.4064C29.5314 46.0725 31.0856 45.4065 31.5296 44.0743L32.4177 41.1878C32.6398 40.5217 32.4177 39.4116 31.9737 38.9676L26.8671 33.8608C26.423 33.4168 26.201 32.7508 26.201 32.3067V26.0899C26.201 25.2017 26.8671 24.7577 27.7552 24.9797L38.6345 29.6425C40.4107 30.3086 41.7429 29.4204 41.7429 27.6442V24.7577C41.7429 23.2036 40.6327 21.6495 39.3006 20.9834" stroke="#F97E6C" stroke-width="2.5" stroke-linecap="round" stroke-linejoin="round"/>
</svg>
